<svg xmlns="http://www.w3.org/2000/svg" xmlns:xlink="http://www.w3.org/1999/xlink" width="661.333" height="200"><defs><path id="a" d="M23.894 122.927V35.261c0-4.134 3.382-7.515 7.515-7.515h95.181c4.133 0 7.515 3.381 7.515 7.515v87.666zm37.572-15.028a5.009 5.009 0 0 0 5.01 5.01h25.048a5.01 5.01 0 1 0 0-10.019H66.476a5.008 5.008 0 0 0-5.01 5.009"/></defs><defs><clipPath id="c" clipPathUnits="userSpaceOnUse"><use xlink:href="#a"/></clipPath><clipPath id="d" clipPathUnits="userSpaceOnUse"><path d="M31.409 35.261v-.115l.001-.089v-.089l.001-.07v-.1l.001-.008.001-.108v-.048l.001-.014v-.052l.001-.066v-.019l.003-.146v-.012l.001-.049.001-.024.001-.052v-.005l.002-.11.001-.037v-.005l.001-.021v-.008l.001-.033.002-.056v-.016l.002-.055.002-.093v-.006l.007-.187.001-.027.001-.028.001-.027a.575.575 0 0 0 .001-.041l.001-.029.002-.048.001-.019.002-.043.002-.046.002-.06v-.005l.001-.024.002-.038.001-.03.001-.01.005-.112.003-.055c.001-.026.003-.053.003-.08l.001-.005.004-.082v-.002l.002-.032.006-.112.001-.022.003-.044v-.009l.001-.021v-.007l.002-.03.003-.053.002-.031.001-.008v-.014l.001-.006.001-.017v-.009l.002-.028.004-.061v-.011l.002-.024.003-.054.002-.023.001-.015v-.001l.004-.071.003-.04.004-.058.001-.005v-.008l.005-.069.003-.036.002-.037.004-.054c.025-.343.054-.688.086-1.029l.001-.009.002-.018.001-.009v-.005l.009-.097.008-.072.005-.055c.092-.909.209-1.812.35-2.707H126c.082.514.155 1.031.22 1.551l.005.04.004.027.024.204.004.029.002.022.006.049.015.128v.001l.017.149v.003c.029.259.055.518.08.778l.011.116.003.03.003.04.005.048.001.021.001.003v.003l.001.012.009.095.001.023a2.535 2.535 0 0 1 .009.102l.001.014.009.108v.002l.001.002v.008l.02.244.006.089v.001l.015.205.002.034.001.007v.004a.365.365 0 0 1 .002.033l.001.012.009.133.002.034.003.046.002.021.001.024.001.019c.002.019.002.038.003.058l.003.034.005.082.001.03.002.019.001.031.002.031.002.038.004.061.001.032.015.279v.024l.001.005v.019l.004.075.002.038v.003l.001.023.003.073.002.045.001.013v.007c.001.033.003.063.003.096l.001.023.002.03.001.038.006.161.001.045v.003l.001.021.001.03.001.013.001.045v.002l.001.04.001.016.001.032v.015l.003.101v.021l.001.015v.029l.003.097.003.159v.015l.001.022v.035l.001.065.001.007v.053l.001.06v.006a.271.271 0 0 1 .001.029v.031l.001.038v.01l.001.112v.004l.001.051v.047l.001.073v.291c0 26.283-21.306 47.59-47.59 47.59-26.283 0-47.591-21.307-47.591-47.59"/></clipPath><clipPath id="e" clipPathUnits="userSpaceOnUse"><use xlink:href="#a"/></clipPath><clipPath id="f" clipPathUnits="userSpaceOnUse"><path d="M23.895 122.928h110.21V75.337H23.895Z"/></clipPath><clipPath id="g" clipPathUnits="userSpaceOnUse"><use xlink:href="#a"/></clipPath><clipPath id="h" clipPathUnits="userSpaceOnUse"><path d="M23.895 75.963h110.21v-.626H23.895Z"/></clipPath><clipPath id="i" clipPathUnits="userSpaceOnUse"><path d="M23.895 75.337h110.21v-.626H23.895Z"/></clipPath><clipPath id="j" clipPathUnits="userSpaceOnUse"><path d="M23.895 122.928h110.21v-20.665H23.895Z"/></clipPath><clipPath id="k" clipPathUnits="userSpaceOnUse"><path d="M23.895 113.535h110.21v-85.79H23.895Z"/></clipPath><clipPath id="l" clipPathUnits="userSpaceOnUse"><use xlink:href="#a"/></clipPath><clipPath id="o" clipPathUnits="userSpaceOnUse"><path d="M0 150h496V0H0Z"/></clipPath><radialGradient id="b" cx="0" cy="0" r="1" fx="0" fy="0" gradientTransform="translate(23.583 123.339) scale(142.51974)" gradientUnits="userSpaceOnUse" spreadMethod="pad"><stop offset="0" stop-color="#fff" stop-opacity=".1"/><stop offset="1" stop-color="#fff" stop-opacity="0"/></radialGradient><radialGradient id="n" cx="0" cy="0" r="1" fx="0" fy="0" gradientTransform="translate(23.583 123.339) scale(142.51974)" gradientUnits="userSpaceOnUse" spreadMethod="pad"><stop offset="0" stop-color="#fff"/><stop offset="1" stop-color="#fff"/></radialGradient><mask id="m" width="1" height="1" x="0" y="0" maskUnits="userSpaceOnUse"><path fill="url(#b)" d="M-32768 32767h65535v-65535h-65535Z"/></mask></defs><g clip-path="url(#c)" transform="matrix(1.33333 0 0 -1.33333 0 200)"><path fill="#eee" d="M23.895 122.928h110.211V27.746H23.895Z"/><path fill="#fff" d="M91.524 112.909H66.476a5.01 5.01 0 1 1 0-10.02h25.048a5.008 5.008 0 0 1 5.01 5.01 5.009 5.009 0 0 1-5.01 5.01"/></g><g clip-path="url(#d)" transform="matrix(1.33333 0 0 -1.33333 0 200)"><path fill="#db4437" d="M38.967 82.851V24.446h21.297L79 56.896h47.591V82.85Zm0 0V24.446h21.297L79 56.896h47.591V82.85Z"/><path fill="#0f9d58" d="M31.41-12.331h45.298L97.736 8.697V24.44l-37.472.006L31.41 73.935Zm0 0h45.298L97.736 8.697V24.44l-37.472.006L31.41 73.935Z"/><path fill="#ffcd40" d="m79 56.895 18.736-32.449-21.022-36.778h49.877v69.227Zm0 0 18.736-32.449-21.022-36.778h49.877v69.227z"/><path fill="#f1f1f1" d="M79 56.895c11.949 0 21.635-9.687 21.635-21.635 0-11.949-9.686-21.636-21.635-21.636-11.949 0-21.635 9.687-21.635 21.636S67.051 56.896 79 56.896"/><path fill="#4285f4" d="M79 52.568c9.559 0 17.308-7.749 17.308-17.308 0-9.559-7.749-17.308-17.308-17.308-9.559 0-17.308 7.75-17.308 17.308 0 9.56 7.749 17.308 17.308 17.308"/></g><g clip-path="url(#e)" transform="matrix(1.33333 0 0 -1.33333 0 200)"><g clip-path="url(#f)" opacity=".05"><path fill="#212121" d="M23.895 122.928h110.211V75.337H23.895Z"/></g></g><g clip-path="url(#g)" transform="matrix(1.33333 0 0 -1.33333 0 200)"><g clip-path="url(#h)" opacity=".02"><path fill="#212121" d="M23.895 75.963h110.211v-.626H23.895Z"/></g><g clip-path="url(#i)" opacity=".05"><path fill="#fff" d="M23.895 75.337h110.211v-.626H23.895Z"/></g><g clip-path="url(#j)" opacity=".02"><path fill="#212121" d="M23.895 122.302h110.211v.626H23.895Zm67.629-19.412H66.476a5 5 0 0 0-4.991 4.696 2.753 2.753 0 0 1-.019-.313 5.009 5.009 0 0 1 5.01-5.01h25.048a5.009 5.009 0 0 1 5.01 5.01c0 .106-.007.206-.019.313a5 5 0 0 0-4.991-4.696"/></g><g clip-path="url(#k)" opacity=".1"><path fill="#231f20" d="M126.59 28.372H31.41c-4.132 0-7.514 3.382-7.514 7.515v-.626c0-4.134 3.382-7.515 7.514-7.515h95.182c4.133 0 7.515 3.381 7.515 7.515v.626c0-4.133-3.382-7.515-7.515-7.515M66.476 112.91h25.048a5 5 0 0 0 4.99-4.697c.007.106.02.207.02.313a5.009 5.009 0 0 1-5.01 5.01H66.476a5.01 5.01 0 0 1-5.01-5.01c0-.106.007-.207.02-.313a5 5 0 0 0 4.99 4.697"/></g></g><g clip-path="url(#l)" transform="matrix(1.33333 0 0 -1.33333 0 200)"><g mask="url(#m)"><path fill="url(#n)" d="M23.894 122.927V35.261c0-4.134 3.382-7.515 7.515-7.515h95.181c4.133 0 7.515 3.381 7.515 7.515v87.666zm37.572-15.028a5.009 5.009 0 0 0 5.01 5.01h25.048a5.01 5.01 0 1 0 0-10.019H66.476a5.008 5.008 0 0 0-5.01 5.009"/></g></g><g clip-path="url(#o)" transform="matrix(1.33333 0 0 -1.33333 0 200)"><path fill="#5f6368" d="M174.133 44.34c-3.897 0-7.166 1.319-9.805 3.959-2.64 2.639-3.96 5.932-3.96 9.879 0 3.946 1.32 7.239 3.96 9.879 2.639 2.638 5.908 3.959 9.805 3.959 3.996 0 7.239-1.444 9.73-4.33l-2.367-2.293c-1.801 2.244-4.255 3.367-7.363 3.367-2.886 0-5.322-.975-7.307-2.923-1.986-1.95-2.98-4.502-2.98-7.66 0-3.157.994-5.71 2.98-7.658 1.985-1.95 4.42-2.923 7.307-2.923 3.182 0 5.896 1.282 8.14 3.848l2.368-2.37c-1.21-1.454-2.726-2.607-4.551-3.458-1.826-.85-3.811-1.276-5.957-1.276m16.947 27.084v-8.362l-.149-2.516h.148c.493.863 1.27 1.597 2.331 2.2a6.756 6.756 0 0 0 3.404.907c2.244 0 3.96-.69 5.143-2.071 1.184-1.382 1.776-3.232 1.776-5.551v-11.1h-3.404v10.583c0 3.354-1.493 5.032-4.477 5.032-1.406 0-2.553-.561-3.44-1.684-.889-1.123-1.333-2.423-1.333-3.903V44.932h-3.404v26.492Zm20.053-26.492h-3.404v18.13h3.256v-2.96h.148c.345.986 1.054 1.8 2.127 2.442 1.073.64 2.115.962 3.127.962 1.01 0 1.862-.148 2.553-.444l-1.295-3.182c-.444.172-1.05.259-1.813.259-1.234 0-2.325-.487-3.275-1.462-.95-.974-1.424-2.251-1.424-3.83Zm13.041 4.31c1.171-1.196 2.56-1.795 4.163-1.795 1.603 0 2.99.6 4.162 1.795 1.172 1.196 1.758 2.78 1.758 4.755 0 1.973-.586 3.558-1.758 4.754-1.172 1.196-2.559 1.795-4.162 1.795-1.604 0-2.992-.599-4.163-1.795-1.17-1.196-1.757-2.78-1.757-4.754 0-1.975.586-3.559 1.757-4.755m-2.534 11.655c1.751 1.837 3.983 2.756 6.697 2.756 2.713 0 4.945-.919 6.697-2.756 1.751-1.838 2.627-4.138 2.627-6.9 0-2.764-.876-5.064-2.627-6.9-1.752-1.839-3.984-2.757-6.697-2.757-2.714 0-4.946.918-6.697 2.756-1.752 1.837-2.627 4.137-2.627 6.901 0 2.762.875 5.062 2.627 6.9m18.759-15.965v18.13h3.256v-2.516h.148c.518.864 1.314 1.597 2.387 2.2 1.073.606 2.139.908 3.2.908 2.812 0 4.723-1.16 5.735-3.478 1.48 2.318 3.59 3.478 6.327 3.478 2.147 0 3.762-.685 4.847-2.053 1.086-1.37 1.628-3.226 1.628-5.57v-11.1h-3.403v10.583c0 1.825-.333 3.12-1 3.885-.666.764-1.678 1.147-3.034 1.147-1.332 0-2.436-.568-3.311-1.702-.876-1.135-1.314-2.43-1.314-3.885V44.932h-3.404v10.582c0 1.825-.333 3.12-1 3.885-.664.764-1.676 1.147-3.033 1.147-1.332 0-2.436-.568-3.311-1.702-.876-1.135-1.314-2.43-1.314-3.885V44.932ZM285.02 56.18c-.073 1.036-.548 2.022-1.424 2.96-.875.937-2.177 1.406-3.903 1.406-1.258 0-2.35-.395-3.275-1.184-.924-.79-1.56-1.85-1.905-3.182Zm-4.883-11.84c-2.738 0-4.965.912-6.68 2.738-1.713 1.825-2.57 4.13-2.57 6.919 0 2.639.832 4.909 2.497 6.808s3.793 2.849 6.383 2.849c2.689 0 4.84-.876 6.456-2.627 1.615-1.751 2.424-4.095 2.424-7.03l-.037-.63h-14.318c.097-1.825.708-3.268 1.83-4.328 1.123-1.061 2.436-1.591 3.94-1.591 2.443 0 4.096 1.036 4.959 3.108l3.034-1.258c-.592-1.406-1.566-2.584-2.923-3.534-1.357-.95-3.022-1.424-4.995-1.424m49.728 27.084-7.067-26.492h-3.479l-5.697 17.464h-.149l-5.698-17.464h-3.477l-7.364 26.492h3.552l5.588-20.831h.147l5.736 17.279h3.181l5.736-17.28h.147l5.291 20.832Zm13.727-15.244c-.074 1.036-.55 2.022-1.425 2.96-.875.937-2.177 1.406-3.903 1.406-1.258 0-2.35-.395-3.275-1.184-.924-.79-1.56-1.85-1.905-3.182Zm-4.884-11.84c-2.738 0-4.965.912-6.68 2.738-1.713 1.825-2.57 4.13-2.57 6.919 0 2.639.832 4.909 2.497 6.808s3.793 2.849 6.383 2.849c2.689 0 4.84-.876 6.456-2.627 1.615-1.751 2.424-4.095 2.424-7.03l-.037-.63h-14.318c.097-1.825.708-3.268 1.83-4.328 1.123-1.061 2.436-1.591 3.94-1.591 2.443 0 4.096 1.036 4.959 3.108l3.034-1.258c-.592-1.406-1.566-2.584-2.923-3.534-1.357-.95-3.022-1.424-4.995-1.424m20.645 3.107c1.58 0 2.936.6 4.07 1.795 1.135 1.196 1.702 2.78 1.702 4.755 0 1.972-.567 3.557-1.702 4.754-1.134 1.196-2.49 1.795-4.07 1.795-1.604 0-2.966-.592-4.088-1.777-1.123-1.183-1.683-2.774-1.683-4.772 0-1.998.56-3.59 1.683-4.774 1.123-1.183 2.485-1.776 4.089-1.776m.556-3.107c-1.383 0-2.622.295-3.72.887-1.098.592-1.918 1.332-2.46 2.22h-.148v-2.516h-3.256v26.493h3.403v-8.363l-.146-2.515h.147c.543.887 1.363 1.628 2.46 2.22 1.099.591 2.338.887 3.72.887 2.342 0 4.366-.925 6.067-2.774 1.702-1.85 2.554-4.145 2.554-6.882 0-2.738-.853-5.032-2.555-6.883-1.7-1.85-3.724-2.774-6.067-2.774m26.824 0c-1.924 0-3.805.629-5.643 1.887-1.837 1.258-3.04 3.02-3.607 5.29l3.108 1.259a7.1 7.1 0 0 1 2.276-3.682c1.147-1 2.435-1.498 3.866-1.498 1.48 0 2.744.389 3.793 1.165 1.048.777 1.572 1.832 1.572 3.164 0 1.479-.524 2.62-1.572 3.422-1.049.802-2.708 1.548-4.977 2.239-2.343.739-4.12 1.695-5.328 2.867-1.209 1.17-1.812 2.67-1.812 4.495 0 1.9.752 3.553 2.257 4.958 1.504 1.407 3.464 2.11 5.882 2.11 2.245 0 4.071-.562 5.476-1.684 1.406-1.123 2.318-2.35 2.738-3.681l-3.108-1.295c-.222.838-.77 1.615-1.647 2.33-.875.716-2.003 1.074-3.384 1.074-1.308 0-2.424-.364-3.349-1.092-.925-.727-1.388-1.634-1.388-2.72 0-.986.426-1.82 1.277-2.497.851-.678 2.102-1.29 3.756-1.831 1.306-.42 2.398-.827 3.274-1.221a15.225 15.225 0 0 0 2.664-1.573 6.273 6.273 0 0 0 2.035-2.442c.456-.975.685-2.103.685-3.385 0-1.283-.266-2.43-.796-3.441-.53-1.012-1.234-1.813-2.11-2.406a10.607 10.607 0 0 0-5.938-1.812m19.315.296c-1.9 0-3.35.505-4.348 1.517-1 1.01-1.498 2.442-1.498 4.292v9.509h-3.182v3.108h3.182v5.55h3.404v-5.55h4.44v-3.108h-4.44v-9.25c0-1.974.814-2.961 2.442-2.961.616 0 1.134.099 1.554.297l1.184-2.924c-.74-.32-1.653-.48-2.738-.48m9.194 4.606c1.172-1.196 2.56-1.795 4.163-1.795 1.603 0 2.99.6 4.162 1.795 1.171 1.196 1.758 2.78 1.758 4.755 0 1.973-.587 3.558-1.758 4.754-1.172 1.196-2.559 1.795-4.162 1.795-1.604 0-2.99-.599-4.163-1.795-1.172-1.196-1.757-2.78-1.757-4.754 0-1.975.585-3.559 1.757-4.755m-2.534 11.655c1.751 1.837 3.983 2.756 6.697 2.756 2.713 0 4.945-.919 6.696-2.756 1.752-1.838 2.627-4.138 2.627-6.9 0-2.764-.875-5.064-2.627-6.9-1.75-1.839-3.983-2.757-6.696-2.757-2.714 0-4.946.918-6.697 2.756-1.752 1.837-2.627 4.137-2.627 6.901 0 2.762.875 5.062 2.627 6.9m22.162-15.965h-3.403v18.13h3.256v-2.96h.147c.346.986 1.055 1.8 2.128 2.442 1.073.64 2.115.962 3.127.962 1.011 0 1.861-.148 2.553-.444l-1.295-3.182c-.445.172-1.049.259-1.814.259-1.233 0-2.325-.487-3.274-1.462-.95-.974-1.425-2.251-1.425-3.83Zm22.015 11.248c-.074 1.036-.55 2.022-1.425 2.96-.875.937-2.177 1.406-3.903 1.406-1.258 0-2.35-.395-3.275-1.184-.924-.79-1.56-1.85-1.905-3.182ZM452 44.34c-2.738 0-4.965.912-6.68 2.738-1.713 1.825-2.57 4.13-2.57 6.919 0 2.639.832 4.909 2.497 6.808s3.793 2.849 6.383 2.849c2.689 0 4.84-.876 6.456-2.627 1.615-1.751 2.424-4.095 2.424-7.03l-.037-.63h-14.318c.097-1.825.708-3.268 1.83-4.328 1.123-1.061 2.436-1.591 3.94-1.591 2.443 0 4.096 1.036 4.959 3.108l3.034-1.258c-.592-1.406-1.566-2.584-2.923-3.534-1.357-.95-3.022-1.424-4.995-1.424M168.02 93.901h6.664l-3.276 9.044h-.112Zm-5.684-7.84 7.56 20.048h2.912l7.56-20.048h-2.856l-1.932 5.432h-8.428l-1.96-5.432zm22.624 0-5.544 13.72h2.8l4.032-10.64h.056l4.088 10.64h2.744l-5.6-13.72Zm14.336 1.905c1.064 0 2.03.396 2.898 1.189.868.793 1.302 1.732 1.302 2.815-.728.597-1.82.895-3.276.895-1.251 0-2.194-.27-2.828-.811-.635-.542-.952-1.176-.952-1.904 0-.672.289-1.205.868-1.596.578-.393 1.24-.588 1.988-.588m-.42-2.353c-1.456 0-2.674.42-3.654 1.26-.98.84-1.47 1.95-1.47 3.332 0 1.493.578 2.665 1.736 3.515 1.157.849 2.585 1.273 4.284 1.273 1.512 0 2.753-.28 3.724-.84v.393c0 1.008-.346 1.815-1.036 2.422-.691.606-1.54.91-2.548.91a3.952 3.952 0 0 1-2.03-.532c-.607-.356-1.022-.84-1.246-1.456l-2.352 1.008c.317.82.942 1.582 1.876 2.282.933.7 2.165 1.05 3.696 1.05 1.754 0 3.21-.514 4.368-1.54 1.157-1.027 1.736-2.474 1.736-4.34v-8.288h-2.464v1.904h-.112c-1.027-1.568-2.53-2.353-4.508-2.353m12.796.449h-2.576v13.72h2.576zm0 17.164a1.754 1.754 0 0 0-1.288-.533c-.504 0-.934.178-1.288.533a1.753 1.753 0 0 0-.533 1.288c0 .504.178.932.533 1.288.354.354.784.532 1.288.532s.933-.178 1.288-.532c.354-.356.532-.784.532-1.288s-.178-.934-.532-1.288m5.935-17.164h-2.576v20.048h2.576zm7.757 1.904c1.064 0 2.03.396 2.898 1.189.868.793 1.302 1.732 1.302 2.815-.728.597-1.82.895-3.276.895-1.251 0-2.194-.27-2.828-.811-.635-.542-.952-1.176-.952-1.904 0-.672.289-1.205.868-1.596.578-.393 1.24-.588 1.988-.588m-.42-2.353c-1.456 0-2.674.42-3.654 1.26-.98.84-1.47 1.95-1.47 3.332 0 1.493.578 2.665 1.736 3.515 1.157.849 2.585 1.273 4.284 1.273 1.512 0 2.753-.28 3.724-.84v.393c0 1.008-.346 1.815-1.036 2.422-.691.606-1.54.91-2.548.91a3.952 3.952 0 0 1-2.03-.532c-.607-.356-1.022-.84-1.246-1.456l-2.352 1.008c.317.82.942 1.582 1.876 2.282.933.7 2.165 1.05 3.696 1.05 1.754 0 3.21-.514 4.368-1.54 1.157-1.027 1.736-2.474 1.736-4.34v-8.288h-2.464v1.904h-.112c-1.027-1.568-2.53-2.353-4.508-2.353m16.828 2.353c1.194 0 2.22.452 3.08 1.357.857.906 1.287 2.105 1.287 3.599 0 1.493-.43 2.692-1.287 3.598-.86.905-1.887 1.358-3.08 1.358-1.213 0-2.245-.448-3.094-1.345-.85-.895-1.274-2.1-1.274-3.611 0-1.513.424-2.717 1.274-3.612.849-.897 1.88-1.344 3.094-1.344m.42-2.353c-1.046 0-1.984.225-2.815.672-.83.449-1.452 1.009-1.862 1.68h-.111v-1.903h-2.464v20.048h2.576v-6.33l-.112-1.902h.112c.41.672 1.03 1.232 1.862 1.68.83.448 1.769.672 2.814.672 1.772 0 3.303-.701 4.591-2.1 1.29-1.4 1.932-3.137 1.932-5.208 0-2.072-.643-3.81-1.931-5.208-1.288-1.4-2.82-2.101-4.593-2.101m11.312.449h-2.575v20.048h2.575zm12.909 8.511c-.057.784-.416 1.53-1.078 2.24-.663.71-1.649 1.065-2.954 1.065-.952 0-1.779-.299-2.479-.897-.7-.597-1.18-1.4-1.44-2.408zm-3.696-8.96c-2.073 0-3.757.69-5.054 2.072-1.298 1.381-1.946 3.126-1.946 5.237 0 1.997.63 3.714 1.89 5.151 1.26 1.437 2.87 2.156 4.83 2.156 2.034 0 3.663-.663 4.885-1.988 1.223-1.325 1.834-3.099 1.834-5.319l-.027-.477h-10.836c.074-1.382.536-2.474 1.386-3.275.848-.803 1.842-1.204 2.981-1.204 1.85 0 3.1.784 3.753 2.351l2.296-.952c-.448-1.063-1.186-1.955-2.212-2.674-1.027-.718-2.287-1.078-3.78-1.078m17.751.449h-2.576v13.72h2.576zm0 17.164a1.754 1.754 0 0 0-1.288-.533c-.504 0-.934.178-1.288.533a1.753 1.753 0 0 0-.533 1.288c0 .504.178.932.533 1.288.354.354.784.532 1.288.532s.933-.178 1.288-.532c.354-.356.532-.784.532-1.288s-.178-.934-.532-1.288m5.823-3.445v-1.903h.111c.374.652.962 1.208 1.765 1.666a5.12 5.12 0 0 0 2.576.685c1.698 0 2.996-.522 3.892-1.568.896-1.045 1.344-2.445 1.344-4.199v-8.4h-2.577v8.007c0 2.538-1.129 3.81-3.387 3.81-1.064 0-1.932-.426-2.604-1.276-.672-.849-1.009-1.834-1.009-2.954v-7.588h-2.575v13.72Zm24.807-13.943c-1.437 0-2.534.382-3.29 1.147-.756.766-1.134 1.849-1.134 3.249v7.196h-2.408v2.35h2.408v4.202h2.576V99.78h3.36v-2.35h-3.36v-7c0-1.494.617-2.24 1.848-2.24.467 0 .858.074 1.176.223l.896-2.212c-.56-.242-1.251-.363-2.072-.363m6.691 20.272v-6.33l-.11-1.903h.11c.374.652.962 1.208 1.765 1.666a5.117 5.117 0 0 0 2.576.685c1.698 0 2.996-.522 3.891-1.568.897-1.045 1.344-2.446 1.344-4.199v-8.4h-2.576v8.007c0 2.538-1.129 3.81-3.388 3.81-1.063 0-1.93-.426-2.603-1.276-.672-.849-1.009-1.834-1.009-2.954V86.06h-2.575v20.048ZM340.3 94.573c-.056.784-.415 1.53-1.077 2.24-.663.71-1.65 1.065-2.954 1.065-.952 0-1.78-.299-2.48-.897-.7-.597-1.18-1.4-1.44-2.408zm-3.695-8.96c-2.073 0-3.757.69-5.054 2.072-1.298 1.381-1.946 3.126-1.946 5.237 0 1.997.63 3.714 1.889 5.151 1.26 1.437 2.87 2.156 4.83 2.156 2.035 0 3.664-.663 4.886-1.988 1.223-1.325 1.834-3.099 1.834-5.319l-.027-.477H332.18c.074-1.382.536-2.474 1.386-3.275.848-.803 1.842-1.204 2.98-1.204 1.85 0 3.1.784 3.754 2.351l2.296-.952c-.448-1.063-1.186-1.955-2.212-2.674-1.027-.718-2.287-1.078-3.78-1.078"/></g></svg>