<svg xmlns="http://www.w3.org/2000/svg" width="172" height="60" fill="none"><g clip-path="url(#a)"><path fill="#001D2F" fill-rule="evenodd" d="M172 3c0-1.656-1.344-3-3-3H3C1.344 0 0 1.344 0 3v54c0 1.656 1.344 3 3 3h166c1.656 0 3-1.344 3-3V3Z" clip-rule="evenodd"/><path fill="#fff" d="m83.164 44.476-1.045-2.626h-6.484l-1.045 2.626H71l6.071-15.285h3.612l6.071 15.285h-3.59Zm-6.506-5.184h4.439l-2.22-5.562-2.22 5.562ZM93.76 29.191c1.655 0 3.134.334 4.44.98 1.305.644 2.328 1.556 3.068 2.713.718 1.157 1.088 2.47 1.088 3.938 0 1.469-.37 2.781-1.088 3.938-.74 1.18-1.763 2.092-3.068 2.737-1.306.645-2.785.979-4.44.979h-5.352V29.19h5.353Zm.414 12.304c.936 0 1.785-.2 2.524-.601.74-.4 1.328-.957 1.741-1.669.414-.69.61-1.49.61-2.403 0-.89-.196-1.69-.61-2.403a4.386 4.386 0 0 0-1.74-1.668c-.74-.378-1.589-.578-2.525-.578h-2.567v9.322h2.567Zm15.428-12.304c1.654 0 3.133.334 4.439.98 1.306.644 2.328 1.556 3.068 2.713.718 1.157 1.088 2.47 1.088 3.938 0 1.469-.37 2.781-1.088 3.938-.74 1.18-1.762 2.092-3.068 2.737s-2.785.979-4.439.979h-5.353V29.19h5.353Zm.413 12.304c.936 0 1.785-.2 2.525-.601a4.384 4.384 0 0 0 1.74-1.669c.414-.69.61-1.49.61-2.403 0-.89-.196-1.69-.61-2.403a4.386 4.386 0 0 0-1.74-1.668c-.74-.378-1.589-.578-2.525-.578h-2.567v9.322h2.567Zm15.45-4.517h-5.962v2.759h5.962v-2.759Zm9.248 7.765a7.467 7.467 0 0 1-3.938-1.09 7.985 7.985 0 0 1-2.916-2.893c-.718-1.223-1.088-2.536-1.088-3.938 0-1.401.37-2.714 1.088-3.938.718-1.201 1.697-2.158 2.916-2.892a7.653 7.653 0 0 1 3.938-1.068c1.415 0 2.72.356 3.939 1.068 1.218.734 2.198 1.69 2.916 2.892.718 1.224 1.088 2.537 1.088 3.938 0 1.402-.37 2.715-1.088 3.938a7.993 7.993 0 0 1-2.916 2.893 7.47 7.47 0 0 1-3.939 1.09Zm0-2.982a4.12 4.12 0 0 0 2.307-.69 4.77 4.77 0 0 0 1.697-1.801 5.05 5.05 0 0 0 .631-2.448 5.05 5.05 0 0 0-.631-2.447 5.118 5.118 0 0 0-1.697-1.802 4.286 4.286 0 0 0-2.307-.668c-.805 0-1.566.223-2.284.668a5.053 5.053 0 0 0-1.719 1.824 4.963 4.963 0 0 0-.631 2.425c0 .868.217 1.691.631 2.448a4.82 4.82 0 0 0 1.719 1.802c.718.467 1.479.69 2.284.69Zm9.835-12.57h3.199l7.224 9.878v-9.878h3.199v15.285h-3.199l-7.224-9.879v9.879h-3.199V29.19Zm-68.238-9.16h4.315v4.172c-.484.526-1.1.931-1.82 1.231-.734.3-1.468.45-2.202.45-.954 0-1.834-.24-2.642-.735a5.35 5.35 0 0 1-1.952-1.951 5.032 5.032 0 0 1-.734-2.657c0-.945.235-1.83.734-2.656a5.35 5.35 0 0 1 1.952-1.951 5.075 5.075 0 0 1 2.642-.72c.749 0 1.483.15 2.202.45.72.3 1.336.705 1.82 1.215l-1.306 1.246c-.308-.375-.72-.66-1.218-.886-.5-.21-.999-.315-1.498-.315a3.18 3.18 0 0 0-1.717.496 3.52 3.52 0 0 0-1.277 1.32 3.658 3.658 0 0 0-.47 1.801c0 .646.162 1.246.47 1.801a3.56 3.56 0 0 0 1.277 1.336c.528.33 1.1.495 1.717.495a3.76 3.76 0 0 0 2.231-.75v-1.861H76.31v-1.53Zm13.43-2.926h-5.753v2.49h5.21v1.712h-5.21v2.686h5.754v1.711h-7.59v-10.31h7.59v1.71Zm4.272 0h-3.229v-1.711h8.279v1.71h-3.215v8.6h-1.835v-8.6Zm12.801 0h-3.23v-1.711h8.279v1.71h-3.215v8.6h-1.834v-8.6Zm13.254-1.711h1.821v10.31h-1.821v-4.397h-5.034v4.397h-1.835v-10.31h1.835v4.202h5.034v-4.202Zm11.274 1.711h-5.754v2.49h5.211v1.712h-5.211v2.686h5.754v1.711h-7.589v-10.31h7.589v1.71Z"/><g clip-path="url(#b)"><path fill="url(#c)" d="M53.623 40.486c-.603.314-1.226.59-1.863.827a17.912 17.912 0 0 1-6.31 1.124c-8.315 0-15.557-5.712-15.557-13.06a5.537 5.537 0 0 1 2.882-4.799c-7.523.317-9.457 8.156-9.457 12.744 0 13.008 11.971 14.309 14.555 14.309 1.389 0 3.48-.404 4.746-.809l.229-.07a22.553 22.553 0 0 0 11.707-9.281.703.703 0 0 0-.932-.985Z"/><path fill="url(#d)" d="M53.623 40.486c-.603.314-1.226.59-1.863.827a17.912 17.912 0 0 1-6.31 1.124c-8.315 0-15.557-5.712-15.557-13.06a5.537 5.537 0 0 1 2.882-4.799c-7.523.317-9.457 8.156-9.457 12.744 0 13.008 11.971 14.309 14.555 14.309 1.389 0 3.48-.404 4.746-.809l.229-.07a22.553 22.553 0 0 0 11.707-9.281.703.703 0 0 0-.932-.985Z" opacity=".35"/><path fill="url(#e)" d="M31.58 49.416a13.923 13.923 0 0 1-3.99-3.744 14.186 14.186 0 0 1 5.185-21.094c.563-.264 1.495-.72 2.742-.703a5.696 5.696 0 0 1 4.518 2.285 5.607 5.607 0 0 1 1.108 3.287c0-.035 4.306-13.992-14.063-13.992-7.717 0-14.062 7.313-14.062 13.746a22.886 22.886 0 0 0 2.127 9.844 22.5 22.5 0 0 0 27.492 11.777 13.273 13.273 0 0 1-11.04-1.406h-.017Z"/><path fill="url(#f)" d="M31.58 49.416a13.923 13.923 0 0 1-3.99-3.744 14.186 14.186 0 0 1 5.185-21.094c.563-.264 1.495-.72 2.742-.703a5.696 5.696 0 0 1 4.518 2.285 5.607 5.607 0 0 1 1.108 3.287c0-.035 4.306-13.992-14.063-13.992-7.717 0-14.062 7.313-14.062 13.746a22.886 22.886 0 0 0 2.127 9.844 22.5 22.5 0 0 0 27.492 11.777 13.273 13.273 0 0 1-11.04-1.406h-.017Z" opacity=".41"/><path fill="url(#g)" d="M39.79 33.156c-.16.176-.599.44-.599.985 0 .457.3.914.844 1.283 2.514 1.758 7.278 1.511 7.295 1.511a10.476 10.476 0 0 0 5.326-1.458 10.794 10.794 0 0 0 5.344-9.3c.053-3.937-1.406-6.556-1.986-7.716C52.269 11.184 44.236 7 35.5 7A22.5 22.5 0 0 0 13 29.184c.088-6.416 6.469-11.602 14.063-11.602.615 0 4.13.053 7.382 1.758a12.762 12.762 0 0 1 5.432 5.15c1.072 1.864 1.266 4.237 1.266 5.186 0 .949-.475 2.338-1.371 3.498l.017-.018Z"/><path fill="url(#h)" d="M39.79 33.156c-.16.176-.599.44-.599.985 0 .457.3.914.844 1.283 2.514 1.758 7.278 1.511 7.295 1.511a10.476 10.476 0 0 0 5.326-1.458 10.794 10.794 0 0 0 5.344-9.3c.053-3.937-1.406-6.556-1.986-7.716C52.269 11.184 44.236 7 35.5 7A22.5 22.5 0 0 0 13 29.184c.088-6.416 6.469-11.602 14.063-11.602.615 0 4.13.053 7.382 1.758a12.762 12.762 0 0 1 5.432 5.15c1.072 1.864 1.266 4.237 1.266 5.186 0 .949-.475 2.338-1.371 3.498l.017-.018Z"/></g></g><defs><radialGradient id="d" cx="0" cy="0" r="1" gradientTransform="matrix(16.7695 0 0 15.9311 40.633 38.35)" gradientUnits="userSpaceOnUse"><stop offset=".7" stop-opacity="0"/><stop offset=".9" stop-opacity=".5"/><stop offset="1"/></radialGradient><radialGradient id="f" cx="0" cy="0" r="1" gradientTransform="matrix(3.77576 -24.92018 20.13302 3.05044 25.402 41.97)" gradientUnits="userSpaceOnUse"><stop offset=".8" stop-opacity="0"/><stop offset=".9" stop-opacity=".5"/><stop offset="1"/></radialGradient><radialGradient id="g" cx="0" cy="0" r="1" gradientTransform="matrix(-1.42337 35.57814 -75.77398 -3.03148 17.55 15.317)" gradientUnits="userSpaceOnUse"><stop stop-color="#35C1F1"/><stop offset=".1" stop-color="#34C1ED"/><stop offset=".2" stop-color="#2FC2DF"/><stop offset=".3" stop-color="#2BC3D2"/><stop offset=".7" stop-color="#36C752"/></radialGradient><radialGradient id="h" cx="0" cy="0" r="1" gradientTransform="matrix(4.78898 16.41936 -13.35226 3.8944 55.198 20.588)" gradientUnits="userSpaceOnUse"><stop stop-color="#66EB6E"/><stop offset="1" stop-color="#66EB6E" stop-opacity="0"/></radialGradient><linearGradient id="c" x1="23.318" x2="54.678" y1="38.113" y2="38.113" gradientUnits="userSpaceOnUse"><stop stop-color="#0C59A4"/><stop offset="1" stop-color="#114A8B"/></linearGradient><linearGradient id="e" x1="39.842" x2="20.277" y1="24.508" y2="45.83" gradientUnits="userSpaceOnUse"><stop stop-color="#1B9DE2"/><stop offset=".2" stop-color="#1595DF"/><stop offset=".7" stop-color="#0680D7"/><stop offset="1" stop-color="#0078D4"/></linearGradient><clipPath id="a"><path fill="#fff" d="M0 0h172v60H0z"/></clipPath><clipPath id="b"><path fill="#fff" d="M13 7h45v45H13z"/></clipPath></defs></svg>