<svg xmlns="http://www.w3.org/2000/svg" xml:space="preserve" fill-rule="evenodd" stroke-linejoin="round" stroke-miterlimit="2" clip-rule="evenodd" viewBox="0 0 172 60"><path fill="#109ad6" d="M172 3c0-1.656-1.344-3-3-3H3C1.344 0 0 1.344 0 3v54c0 1.656 1.344 3 3 3h166c1.656 0 3-1.344 3-3V3Z"/><path fill="#fff" fill-rule="nonzero" d="m81.508 44.476-1.044-2.625h-6.485l-1.044 2.625h-3.59l6.07-15.285h3.612l6.071 15.285h-3.59Zm-6.506-5.184h4.439l-2.22-5.562-2.22 5.562Zm17.103-10.101c1.654 0 3.134.334 4.44.98 1.305.644 2.327 1.556 3.067 2.713.718 1.157 1.088 2.47 1.088 3.938 0 1.469-.37 2.781-1.088 3.938-.74 1.18-1.762 2.092-3.068 2.737-1.305.645-2.785.979-4.439.979h-5.353V29.19h5.353Zm.414 12.304c.935 0 1.784-.2 2.524-.601.74-.4 1.327-.957 1.74-1.669.414-.69.61-1.49.61-2.403 0-.89-.196-1.69-.61-2.402a4.385 4.385 0 0 0-1.74-1.67c-.74-.377-1.589-.578-2.524-.578H89.95v9.323h2.568Zm15.427-12.304c1.654 0 3.134.334 4.44.98 1.305.644 2.328 1.556 3.067 2.713.719 1.157 1.088 2.47 1.088 3.938 0 1.469-.37 2.781-1.088 3.938-.74 1.18-1.762 2.092-3.068 2.737-1.305.645-2.785.979-4.439.979h-5.353V29.19h5.353Zm.414 12.304c.935 0 1.784-.2 2.524-.601.74-.4 1.327-.957 1.74-1.669.414-.69.61-1.49.61-2.403 0-.89-.196-1.69-.61-2.402a4.385 4.385 0 0 0-1.74-1.67c-.74-.377-1.589-.578-2.524-.578h-2.568v9.323h2.568Zm9.487-4.517h5.962v2.759h-5.962zm15.211 7.765a7.469 7.469 0 0 1-3.939-1.09 7.99 7.99 0 0 1-2.916-2.893c-.718-1.223-1.088-2.536-1.088-3.938 0-1.401.37-2.714 1.088-3.938.718-1.201 1.698-2.158 2.916-2.892a7.656 7.656 0 0 1 3.939-1.068c1.414 0 2.72.356 3.938 1.068 1.219.734 2.198 1.691 2.916 2.892.718 1.224 1.088 2.537 1.088 3.938 0 1.402-.37 2.715-1.088 3.938a7.99 7.99 0 0 1-2.916 2.893 7.469 7.469 0 0 1-3.938 1.09Zm0-2.981c.826 0 1.588-.223 2.306-.69a4.774 4.774 0 0 0 1.697-1.802 5.054 5.054 0 0 0 0-4.895 5.122 5.122 0 0 0-1.697-1.802 4.285 4.285 0 0 0-4.591 0 5.074 5.074 0 0 0-1.72 1.824 4.97 4.97 0 0 0-.63 2.425c0 .868.217 1.691.63 2.448a4.83 4.83 0 0 0 1.72 1.802 4.11 4.11 0 0 0 2.285.69Zm9.834-12.571h3.2l7.223 9.878v-9.878h3.2v15.285h-3.2l-7.224-9.878v9.878h-3.199V29.19Zm-68.238-9.16h4.315v4.172c-.484.526-1.1.93-1.82 1.231-.734.3-1.468.45-2.202.45-.954 0-1.834-.24-2.642-.735a5.35 5.35 0 0 1-1.952-1.951 5.031 5.031 0 0 1-.734-2.657c0-.945.235-1.83.734-2.656a5.35 5.35 0 0 1 1.952-1.951 5.075 5.075 0 0 1 2.642-.72c.75 0 1.483.15 2.202.45.72.3 1.336.705 1.82 1.215l-1.306 1.246c-.308-.375-.72-.66-1.218-.886-.5-.21-.998-.315-1.498-.315-.616 0-1.188.165-1.717.496a3.52 3.52 0 0 0-1.277 1.32 3.657 3.657 0 0 0-.47 1.801c0 .646.162 1.246.47 1.801a3.56 3.56 0 0 0 1.277 1.336c.529.33 1.101.495 1.717.495a3.76 3.76 0 0 0 2.231-.75v-1.861h-2.524V20.03Zm13.431-2.927h-5.754v2.492h5.21v1.71h-5.21v2.687h5.754v1.711h-7.589v-10.31h7.59v1.71Zm4.272 0h-3.23v-1.71h8.28v1.71H94.19v8.6h-1.834v-8.6Zm12.8 0h-3.23v-1.71h8.28v1.71h-3.215v8.6h-1.835v-8.6Zm13.255-1.711h1.82v10.311h-1.82v-4.397h-5.035v4.397h-1.835v-10.31h1.835v4.202h5.035v-4.203Zm11.273 1.711h-5.754v2.492h5.211v1.71h-5.21v2.687h5.753v1.711h-7.589v-10.31h7.59v1.71Z"/><g fill-rule="nonzero"><path fill="url(#a)" d="M478.711 166.353c-10.445-25.124-31.6-52.248-48.212-60.821 13.52 26.505 21.345 53.093 24.335 72.936 0 .039.015.136.047.4C427.706 111.135 381.627 83.823 344 24.355c-1.9-3.007-3.805-6.022-5.661-9.2a73.668 73.668 0 0 1-2.646-4.972A43.709 43.709 0 0 1 332.1.677a.629.629 0 0 0-.546-.644.823.823 0 0 0-.451 0c-.034.012-.084.051-.12.065-.053.021-.12.069-.176.1.027-.036.083-.117.1-.136-60.37 35.356-80.85 100.761-82.732 133.484a120.262 120.262 0 0 0-66.142 25.488 71.412 71.412 0 0 0-6.225-4.7 111.35 111.35 0 0 1-.674-58.732c-24.688 11.241-43.89 29.01-57.85 44.7h-.111c-9.527-12.067-8.855-51.873-8.312-60.184-.114-.515-7.107 3.63-8.023 4.255a175.118 175.118 0 0 0-23.486 20.12 210.534 210.534 0 0 0-22.442 26.913c0 .012-.007.026-.011.038 0-.013.007-.026.011-.038a202.846 202.846 0 0 0-32.247 72.805c-.115.521-.212 1.061-.324 1.586-.452 2.116-2.08 12.7-2.365 15-.022.177-.032.347-.053.524a229.076 229.076 0 0 0-3.9 33.157c0 .41-.025.816-.025 1.227C16 388.418 123.6 496 256.324 496c118.865 0 217.56-86.288 236.882-199.63.407-3.076.733-6.168 1.092-9.271 4.777-41.21-.53-84.525-15.587-120.746ZM201.716 354.447c1.124.537 2.18 1.124 3.334 1.639.048.033.114.07.163.1a126.33 126.33 0 0 1-3.497-1.739ZM454.9 178.927l-.032-.233c.012.085.027.174.04.259l-.008-.026Z" transform="translate(9.614 6.788) scale(.09476)"/><path fill="url(#b)" d="M478.711 166.353c-10.445-25.124-31.6-52.248-48.212-60.821 13.52 26.505 21.345 53.093 24.335 72.936 0-.058.011.048.036.226.012.085.027.174.04.259 22.675 61.47 10.322 123.978-7.479 162.175-27.539 59.1-94.215 119.67-198.576 116.716C136.1 454.651 36.766 370.988 18.223 261.41c-3.379-17.28 0-26.054 1.7-40.084-2.071 10.816-2.86 13.94-3.9 33.157 0 .41-.025.816-.025 1.227C16 388.418 123.6 496 256.324 496c118.865 0 217.56-86.288 236.882-199.63.407-3.076.733-6.168 1.092-9.271 4.777-41.21-.53-84.525-15.587-120.746Z" transform="translate(9.614 6.788) scale(.09476)"/><path fill="url(#c)" d="M478.711 166.353c-10.445-25.124-31.6-52.248-48.212-60.821 13.52 26.505 21.345 53.093 24.335 72.936 0-.058.011.048.036.226.012.085.027.174.04.259 22.675 61.47 10.322 123.978-7.479 162.175-27.539 59.1-94.215 119.67-198.576 116.716C136.1 454.651 36.766 370.988 18.223 261.41c-3.379-17.28 0-26.054 1.7-40.084-2.071 10.816-2.86 13.94-3.9 33.157 0 .41-.025.816-.025 1.227C16 388.418 123.6 496 256.324 496c118.865 0 217.56-86.288 236.882-199.63.407-3.076.733-6.168 1.092-9.271 4.777-41.21-.53-84.525-15.587-120.746Z" transform="translate(9.614 6.788) scale(.09476)"/><path fill="url(#d)" d="M361.922 194.6c.524.368 1 .734 1.493 1.1a130.698 130.698 0 0 0-22.31-29.112C266.4 91.892 321.516 4.626 330.811.194c.027-.036.083-.117.1-.136-60.37 35.356-80.85 100.761-82.732 133.484 2.8-.194 5.592-.429 8.442-.429 45.051 0 84.289 24.77 105.301 61.487Z" transform="translate(9.614 6.788) scale(.09476)"/><path fill="url(#e)" d="M256.772 209.514c-.393 5.978-21.514 26.593-28.9 26.593-68.339 0-79.432 41.335-79.432 41.335 3.027 34.81 27.261 63.475 56.611 78.643 1.339.692 2.694 1.317 4.05 1.935a133.015 133.015 0 0 0 7.059 2.886 106.72 106.72 0 0 0 31.271 6.031c119.78 5.618 142.986-143.194 56.545-186.408 22.137-3.85 45.115 5.053 57.947 14.067-21.012-36.714-60.25-61.484-105.3-61.484-2.85 0-5.641.235-8.442.429a120.262 120.262 0 0 0-66.142 25.488c3.664 3.1 7.8 7.244 16.514 15.828 16.302 16.067 58.13 32.705 58.219 34.657Z" transform="translate(9.614 6.788) scale(.09476)"/><path fill="url(#f)" d="M256.772 209.514c-.393 5.978-21.514 26.593-28.9 26.593-68.339 0-79.432 41.335-79.432 41.335 3.027 34.81 27.261 63.475 56.611 78.643 1.339.692 2.694 1.317 4.05 1.935a133.015 133.015 0 0 0 7.059 2.886 106.72 106.72 0 0 0 31.271 6.031c119.78 5.618 142.986-143.194 56.545-186.408 22.137-3.85 45.115 5.053 57.947 14.067-21.012-36.714-60.25-61.484-105.3-61.484-2.85 0-5.641.235-8.442.429a120.262 120.262 0 0 0-66.142 25.488c3.664 3.1 7.8 7.244 16.514 15.828 16.302 16.067 58.13 32.705 58.219 34.657Z" transform="translate(9.614 6.788) scale(.09476)"/><path fill="url(#g)" d="M170.829 151.036c1.674 1.08 3.334 2.18 4.981 3.3a111.35 111.35 0 0 1-.674-58.732c-24.688 11.241-43.89 29.01-57.85 44.7 1.155-.033 36.014-.66 53.543 10.732Z" transform="translate(9.614 6.788) scale(.09476)"/><path fill="url(#h)" d="M18.223 261.41C36.766 370.988 136.1 454.651 248.855 457.844c104.361 2.954 171.037-57.62 198.576-116.716 17.8-38.2 30.154-100.7 7.479-162.175l-.008-.026-.032-.233c-.025-.178-.04-.284-.036-.226 0 .039.015.136.047.4 8.524 55.661-19.79 109.584-64.051 146.044l-.133.313c-86.245 70.223-168.774 42.368-185.484 30.966a144.242 144.242 0 0 1-3.5-1.743c-50.282-24.029-71.054-69.838-66.6-109.124-42.457 0-56.934-35.809-56.934-35.809s38.119-27.179 88.358-3.541c46.53 21.893 90.228 3.543 90.233 3.541-.089-1.952-41.917-18.59-58.223-34.656-8.713-8.584-12.85-12.723-16.514-15.828a71.412 71.412 0 0 0-6.225-4.7 278.607 278.607 0 0 0-4.981-3.3c-17.528-11.392-52.388-10.765-53.543-10.735h-.111c-9.527-12.067-8.855-51.873-8.312-60.184-.114-.515-7.107 3.63-8.023 4.255a175.118 175.118 0 0 0-23.486 20.12 210.506 210.506 0 0 0-22.442 26.919c0 .012-.007.026-.011.038 0-.013.007-.026.011-.038a202.846 202.846 0 0 0-32.247 72.805c-.115.521-8.65 37.842-4.44 57.199Z" transform="translate(9.614 6.788) scale(.09476)"/><path fill="url(#i)" d="M341.105 166.587a130.698 130.698 0 0 1 22.31 29.112c1.323.994 2.559 1.985 3.608 2.952 54.482 50.2 25.936 121.2 23.807 126.26 44.261-36.46 72.575-90.383 64.051-146.044C427.706 111.135 381.627 83.823 344 24.355c-1.9-3.007-3.805-6.022-5.661-9.2a73.668 73.668 0 0 1-2.646-4.972A43.709 43.709 0 0 1 332.1.677a.629.629 0 0 0-.546-.644.823.823 0 0 0-.451 0c-.034.012-.084.051-.12.065-.053.021-.12.069-.176.1-9.291 4.428-64.407 91.694 10.298 166.389Z" transform="translate(9.614 6.788) scale(.09476)"/><path fill="url(#j)" d="M367.023 198.651c-1.049-.967-2.285-1.958-3.608-2.952-.489-.368-.969-.734-1.493-1.1-12.832-9.014-35.81-17.917-57.947-14.067 86.441 43.214 63.235 192.026-56.545 186.408a106.72 106.72 0 0 1-31.271-6.031 133.865 133.865 0 0 1-7.059-2.886c-1.356-.618-2.711-1.243-4.05-1.935.048.033.114.07.163.1 16.71 11.4 99.239 39.257 185.484-30.966l.133-.313c2.129-5.054 30.675-76.057-23.807-126.258Z" transform="translate(9.614 6.788) scale(.09476)"/><path fill="url(#k)" d="M148.439 277.443s11.093-41.335 79.432-41.335c7.388 0 28.509-20.615 28.9-26.593.391-5.978-43.7 18.352-90.233-3.541-50.239-23.638-88.358 3.541-88.358 3.541s14.477 35.809 56.934 35.809c-4.453 39.286 16.319 85.1 66.6 109.124 1.124.537 2.18 1.124 3.334 1.639-29.348-15.169-53.582-43.834-56.609-78.644Z" transform="translate(9.614 6.788) scale(.09476)"/><path fill="url(#l)" d="M478.711 166.353c-10.445-25.124-31.6-52.248-48.212-60.821 13.52 26.505 21.345 53.093 24.335 72.936 0 .039.015.136.047.4C427.706 111.135 381.627 83.823 344 24.355c-1.9-3.007-3.805-6.022-5.661-9.2a73.668 73.668 0 0 1-2.646-4.972A43.709 43.709 0 0 1 332.1.677a.629.629 0 0 0-.546-.644.823.823 0 0 0-.451 0c-.034.012-.084.051-.12.065-.053.021-.12.069-.176.1.027-.036.083-.117.1-.136-60.37 35.356-80.85 100.761-82.732 133.484 2.8-.194 5.592-.429 8.442-.429 45.053 0 84.291 24.77 105.3 61.484-12.832-9.014-35.81-17.917-57.947-14.067 86.441 43.214 63.235 192.026-56.545 186.408a106.72 106.72 0 0 1-31.271-6.031 133.865 133.865 0 0 1-7.059-2.886c-1.356-.618-2.711-1.243-4.05-1.935.048.033.114.07.163.1a144.242 144.242 0 0 1-3.5-1.743c1.124.537 2.18 1.124 3.334 1.639-29.35-15.168-53.584-43.833-56.611-78.643 0 0 11.093-41.335 79.432-41.335 7.388 0 28.509-20.615 28.9-26.593-.089-1.952-41.917-18.59-58.223-34.656-8.713-8.584-12.85-12.723-16.514-15.828a71.412 71.412 0 0 0-6.225-4.7 111.35 111.35 0 0 1-.674-58.732c-24.688 11.241-43.89 29.01-57.85 44.7h-.111c-9.527-12.067-8.855-51.873-8.312-60.184-.114-.515-7.107 3.63-8.023 4.255a175.118 175.118 0 0 0-23.486 20.12 210.508 210.508 0 0 0-22.435 26.916c0 .012-.007.026-.011.038 0-.013.007-.026.011-.038a202.846 202.846 0 0 0-32.247 72.805c-.115.521-.212 1.061-.324 1.586-.452 2.116-2.486 12.853-2.77 15.156-.022.177.021-.176 0 0a279.594 279.594 0 0 0-3.544 33.53c0 .41-.025.816-.025 1.227C16 388.418 123.6 496 256.324 496c118.865 0 217.56-86.288 236.882-199.63.407-3.076.733-6.168 1.092-9.271 4.777-41.21-.53-84.525-15.587-120.746Zm-23.841 12.341c.012.085.027.174.04.259l-.008-.026-.032-.233Z" transform="translate(9.614 6.788) scale(.09476)"/></g><defs><radialGradient id="b" cx="0" cy="0" r="1" gradientTransform="translate(436.393 55.162) scale(614.402)" gradientUnits="userSpaceOnUse"><stop offset="0" stop-color="#ffbd4f"/><stop offset=".13" stop-color="#ffbd4f"/><stop offset=".28" stop-color="#ff980e"/><stop offset=".47" stop-color="#ff3750"/><stop offset=".78" stop-color="#eb0878"/><stop offset=".86" stop-color="#e50080"/><stop offset="1" stop-color="#e50080"/></radialGradient><radialGradient id="c" cx="0" cy="0" r="1" gradientTransform="translate(251.689 262.119) scale(614.402)" gradientUnits="userSpaceOnUse"><stop offset="0" stop-color="#960e18"/><stop offset=".3" stop-color="#960e18"/><stop offset=".35" stop-color="#b11927" stop-opacity=".74"/><stop offset=".43" stop-color="#db293d" stop-opacity=".34"/><stop offset=".5" stop-color="#f5334b" stop-opacity=".09"/><stop offset=".53" stop-color="#ff3750" stop-opacity="0"/><stop offset="1" stop-color="#ff3750" stop-opacity="0"/></radialGradient><radialGradient id="d" cx="0" cy="0" r="1" gradientTransform="translate(303.492 -23.419) scale(273.899)" gradientUnits="userSpaceOnUse"><stop offset="0" stop-color="#fff44f"/><stop offset=".13" stop-color="#fff44f"/><stop offset=".53" stop-color="#ff980e"/><stop offset="1" stop-color="#ff980e"/></radialGradient><radialGradient id="e" cx="0" cy="0" r="1" gradientTransform="translate(197.029 390.747) scale(233.98)" gradientUnits="userSpaceOnUse"><stop offset="0" stop-color="#3a8ee6"/><stop offset=".35" stop-color="#3a8ee6"/><stop offset=".67" stop-color="#9059ff"/><stop offset="1" stop-color="#c139e6"/></radialGradient><radialGradient id="f" cx="0" cy="0" r="1" gradientTransform="matrix(124.243 0 0 138.048 233.506 210.325)" gradientUnits="userSpaceOnUse"><stop offset="0" stop-color="#9059ff" stop-opacity="0"/><stop offset=".21" stop-color="#9059ff" stop-opacity="0"/><stop offset=".97" stop-color="#6e008b" stop-opacity=".6"/><stop offset="1" stop-color="#6e008b" stop-opacity=".6"/></radialGradient><radialGradient id="g" cx="0" cy="0" r="1" gradientTransform="translate(240.186 36.872) scale(170.323)" gradientUnits="userSpaceOnUse"><stop offset="0" stop-color="#ffe226"/><stop offset=".1" stop-color="#ffe226"/><stop offset=".79" stop-color="#ff7139"/><stop offset="1" stop-color="#ff7139"/></radialGradient><radialGradient id="h" cx="0" cy="0" r="1" gradientTransform="translate(395.187 -74.863) scale(810.278)" gradientUnits="userSpaceOnUse"><stop offset="0" stop-color="#fff44f"/><stop offset=".11" stop-color="#fff44f"/><stop offset=".46" stop-color="#ff980e"/><stop offset=".72" stop-color="#ff3647"/><stop offset=".9" stop-color="#e31587"/><stop offset="1" stop-color="#e31587"/></radialGradient><radialGradient id="i" cx="0" cy="0" r="1" gradientTransform="translate(327.452 -60.622) scale(1133.29)" gradientUnits="userSpaceOnUse"><stop offset="0" stop-color="#fff44f"/><stop offset=".3" stop-color="#ff980e"/><stop offset=".57" stop-color="#ff3647"/><stop offset=".74" stop-color="#e31587"/><stop offset="1" stop-color="#e31587"/></radialGradient><radialGradient id="j" cx="0" cy="0" r="1" gradientTransform="translate(241.932 98.133) scale(465.218)" gradientUnits="userSpaceOnUse"><stop offset="0" stop-color="#fff44f"/><stop offset=".14" stop-color="#fff44f"/><stop offset=".48" stop-color="#ff980e"/><stop offset=".66" stop-color="#ff3647"/><stop offset=".9" stop-color="#e31587"/><stop offset="1" stop-color="#e31587"/></radialGradient><radialGradient id="k" cx="0" cy="0" r="1" gradientTransform="translate(362.68 124.863) scale(559.177)" gradientUnits="userSpaceOnUse"><stop offset="0" stop-color="#fff44f"/><stop offset=".09" stop-color="#fff44f"/><stop offset=".63" stop-color="#ff980e"/><stop offset="1" stop-color="#ff980e"/></radialGradient><linearGradient id="a" x1="0" x2="1" y1="0" y2="0" gradientTransform="rotate(134.153 201.143 130.378) scale(536.454)" gradientUnits="userSpaceOnUse"><stop offset="0" stop-color="#fff44f"/><stop offset=".05" stop-color="#fff44f"/><stop offset=".37" stop-color="#ff980e"/><stop offset=".53" stop-color="#ff3647"/><stop offset=".7" stop-color="#e31587"/><stop offset="1" stop-color="#e31587"/></linearGradient><linearGradient id="l" x1="0" x2="1" y1="0" y2="0" gradientTransform="matrix(-297.6 347.199 -347.199 -297.6 400 69.441)" gradientUnits="userSpaceOnUse"><stop offset="0" stop-color="#fff44f" stop-opacity=".8"/><stop offset=".17" stop-color="#fff44f" stop-opacity=".8"/><stop offset=".6" stop-color="#fff44f" stop-opacity="0"/><stop offset="1" stop-color="#fff44f" stop-opacity="0"/></linearGradient></defs></svg>